<?xml version="1.0" encoding="UTF-8" standalone="no"?>
<!-- Created with sK1/UniConvertor (http://sk1project.org/) -->

<svg
   xmlns:dc="http://purl.org/dc/elements/1.1/"
   xmlns:cc="http://creativecommons.org/ns#"
   xmlns:rdf="http://www.w3.org/1999/02/22-rdf-syntax-ns#"
   xmlns:svg="http://www.w3.org/2000/svg"
   xmlns="http://www.w3.org/2000/svg"
   xmlns:sodipodi="http://sodipodi.sourceforge.net/DTD/sodipodi-0.dtd"
   xmlns:inkscape="http://www.inkscape.org/namespaces/inkscape"
   width="362.69247"
   height="506.34497"
   viewBox="0 0 290.15399 405.07596"
   id="svg3004"
   version="1.1"
   inkscape:version="0.48.0 r9654"
   sodipodi:docname="her_neg.cdr"
   style="fill-rule:evenodd">
  <metadata
     id="metadata3094">
    <rdf:RDF>
      <cc:Work
         rdf:about="">
        <dc:format>image/svg+xml</dc:format>
        <dc:type
           rdf:resource="http://purl.org/dc/dcmitype/StillImage" />
        <dc:title></dc:title>
      </cc:Work>
    </rdf:RDF>
  </metadata>
  <sodipodi:namedview
     pagecolor="#ffffff"
     bordercolor="#666666"
     borderopacity="1"
     objecttolerance="10"
     gridtolerance="10"
     guidetolerance="10"
     inkscape:pageopacity="0"
     inkscape:pageshadow="2"
     inkscape:window-width="1280"
     inkscape:window-height="993"
     id="namedview3092"
     showgrid="false"
     borderlayer="false"
     fit-margin-top="0"
     fit-margin-left="0"
     fit-margin-right="0"
     fit-margin-bottom="0"
     inkscape:zoom="0.34536851"
     inkscape:cx="-308.77954"
     inkscape:cy="105.76246"
     inkscape:window-x="0"
     inkscape:window-y="1"
     inkscape:window-maximized="1"
     inkscape:current-layer="svg3004" />
  <defs
     id="defs3006">
    <marker
       id="ArrowEnd"
       viewBox="0 0 10 10"
       refX="0"
       refY="5"
       markerUnits="strokeWidth"
       markerWidth="4"
       markerHeight="3"
       orient="auto">
      <path
         d="M 0,0 10,5 0,10 z"
         id="path3009"
         inkscape:connector-curvature="0" />
    </marker>
    <marker
       id="ArrowStart"
       viewBox="0 0 10 10"
       refX="10"
       refY="5"
       markerUnits="strokeWidth"
       markerWidth="4"
       markerHeight="3"
       orient="auto">
      <path
         d="M 10,0 0,5 10,10 z"
         id="path3012"
         inkscape:connector-curvature="0" />
    </marker>
  </defs>
  <path
     inkscape:connector-curvature="0"
     id="path3020"
     d="M 0,-3.6104905e-5 289.987,0.1239639 290.154,405.07596 0.167,404.95196 0,-3.6104905e-5 z"
     style="fill:#467aa7;fill-opacity:1;stroke:none" />
  <path
     inkscape:connector-curvature="0"
     id="path3022"
     d="m 146.386,354.62196 c -55.767,0.003 -100.972,-45.199 -100.97,-100.962 l 0.011,-119.955 2.685,-0.008 196.564,-0.008 2.686,0.005 0.001,119.958 c -0.001,55.763 -45.209,100.968 -100.977,100.97 z m 0,-5.37 c 52.802,-0.002 95.606,-42.803 95.607,-95.6 l -0.001,-114.592 -191.195,0.008 -0.011,114.592 c -0.002,52.796 42.799,95.594 95.6,95.592 z"
     style="fill:#ffffff;stroke:none" />
  <path
     inkscape:connector-curvature="0"
     id="path3024"
     d="m 76.285,88.201964 c -6.91,-18.195 -13.873,-36.515 -14.156,-37.095 l 0.363,-0.425 c 0.909,0.282 2.519,1.071 4.711,1.973 2.166,0.892 4.911,1.895 8.115,2.614 2.99,0.7 3.994,1.093 6.031,3.893 1.287,2.039 1.055,5.135 0.713,6.894 0.284,0.673 1.455,1.042 2.008,0.362 1.243,-2.161 2.328,-4.275 4.198,-5.999 2.069,-1.908 4.978,-3.208 9.31,-2.559 7.157,0.874 9.735,10.619 5.934,14.103 -2.073,2.476 -5.652,6.327 -1.145,8.917 l 0.1,0.436 c -1.296,1.899 -5.772,3.513 -7.884,0.489 -1.078,-1.685 -1.198,-2.369 -0.773,-4.199 0.13,-0.56 0.308,-1.238 0.517,-2.112 0.128,-3.082 -3.403,-3.605 -5.107,-3.103 -1.422,0.464 -2.865,2.15 -3.103,6.019 -0.657,8.99 5.513,22.388996 19.018,18.791 7.447,-1.984 8.283,-5.524 8.377,-9.959 -2.564,-0.29 -4.556,-2.466 -4.556,-5.107 0,-2.839 2.301,-5.14 5.14,-5.14 2.839,0 5.14,2.301 5.14,5.14 0,1.956 -1.092,3.656 -2.699,4.524 0.126,0.42 0.337,0.94 0.483,1.308 1.557,3.574 3.798,6.092 10.856,5.464 13.92,-1.237 15.136,-15.938 11.444,-24.161 -1.547,-3.554 -3.479,-4.645 -4.974,-4.594 -1.773,0.11 -4.911,1.81 -3.737,4.662 0.645,0.978 1.496,2.013 1.927,3.111 0.328,0.837 0.281,1.607 -0.01,2.907 -0.95,3.563 -5.709,3.578 -7.575,2.236 l -0.056,-0.443 c 3.375,-4.005 -1.374,-6.376 -4.162,-8.006 -4.731,-2.012 -5.619,-12.004 0.79,-15.264 4.863,-2.643 8.975,-1.852 13.053,1.274 0.984,0.754 1.841,1.532 2.584,2.158 0.752,0.45 1.707,-0.305 1.746,-1.035 -0.984,-1.56 -2.422,-2.931 -2.498,-4.911 -0.357,-2.197 0.034,-4.452 0.941,-6.092 1.016,-1.753 2.511,-3.233 3.772,-4.809 1.501,-1.876 3.172,-4.297 4.74,-8.003 l 0.561,0 c 1.568,3.706 3.236,6.127 4.733,8.003 1.257,1.577 2.748,3.057 3.763,4.809 0.91,1.644 1.303,3.91 0.94,6.111 -0.085,1.972 -1.516,3.336 -2.497,4.892 0.039,0.73 0.994,1.485 1.746,1.035 1.915,-1.612 3.657,-3.227 6.013,-4.211 2.598,-1.086 5.775,-1.313 9.624,0.779 6.427,3.268 5.517,13.308 0.753,15.282 -2.795,1.618 -7.474,4.012 -4.125,7.988 l -0.055,0.443 c -1.867,1.342 -6.626,1.327 -7.576,-2.236 -0.437,-1.953 -0.316,-2.636 0.709,-4.211 0.314,-0.481 0.714,-1.057 1.208,-1.807 1.175,-2.852 -1.964,-4.552 -3.737,-4.662 -1.495,-0.051 -3.427,1.04 -4.974,4.594 -3.692,8.223 -2.476,22.924 11.444,24.161 7.058,0.628 9.3,-1.89 10.857,-5.464 0.145,-0.368 0.356,-0.889 0.482,-1.308 -1.606,-0.868 -2.699,-2.568 -2.699,-4.524 0,-2.839 2.301,-5.14 5.14,-5.14 2.839,0 5.14,2.301 5.14,5.14 0,2.641 -1.992,4.817 -4.556,5.107 0.094,4.435 0.93,7.975 8.378,9.959 13.504,3.597996 19.674,-9.801 19.017,-18.791 -0.238,-3.869 -1.68,-5.555 -3.102,-6.019 -1.705,-0.502 -5.236,0.021 -5.108,3.103 0.272,1.14 0.718,2.403 0.747,3.584 0.023,0.898 -0.285,1.605 -1.002,2.727 -2.113,3.024 -6.589,1.41 -7.884,-0.489 l 0.099,-0.436 c 4.541,-2.609 0.889,-6.462 -1.173,-8.947 -3.759,-3.507 -1.176,-13.202 5.962,-14.073 5.473,-0.82 9.067,1.329 11.831,5.661 0.666,1.045 1.192,2.054 1.677,2.897 0.554,0.68 1.723,0.31 2.008,-0.362 -0.342,-1.759 -0.573,-4.855 0.714,-6.894 2.037,-2.8 3.039,-3.193 6.031,-3.893 3.203,-0.719 5.948,-1.722 8.115,-2.614 2.192,-0.902 3.801,-1.691 4.71,-1.973 l 0.364,0.425 c -0.284,0.58 -7.246,18.9 -14.157,37.095 l -13.033,34.431996 -113.212,0 -13.452,-34.431996 z"
     style="fill:#ffffff;stroke:none" />
  <path
     inkscape:connector-curvature="0"
     id="path3026"
     d="m 179.359,282.92296 14.305,18.248 c 0,0 -10.15,7.953 -10.16,7.941 l -14.377,-18.221 10.232,-7.968 z"
     style="fill:#ffffff;stroke:none" />
  <path
     inkscape:connector-curvature="0"
     id="path3028"
     d="m 93.855,197.81996 c -2.864,-0.966 -6.7,-0.608 -9.504,1.382 -0.365,0.272 -1.062,0.216 -1.312,10e-4 -0.11,-0.089 -5.846,-4.703 -5.846,-4.703 l 31.284,-24.478 3.149,6.81 c 0.158,0.334 0.054,0.98 -0.289,1.295 -2.08,1.882 -3.547,4.491 -3.602,8.776 -0.017,4.506 2.722,7.324 3.768,8.73 -1.879,1.468 -8.298,6.51 -10.185,7.991 -2.47,-3.574 -4.274,-5.012 -7.463,-5.804 z"
     style="fill:#ffffff;stroke:none" />
  <path
     inkscape:connector-curvature="0"
     id="path3030"
     d="m 185.371,319.27296 c 1.746,2.087 4.869,2.374 6.7,0.969 l 10.199,-7.969 c 1.82,-1.422 2.471,-4.4 0.737,-6.623 l -1.474,-1.887 c -1.774,-2.271 -4.781,-2.304 -6.608,-0.828 l -10.19,7.94 c -1.849,1.465 -2.296,4.584 -0.88,6.458 l 1.516,1.94 z"
     style="fill:#ffffff;stroke:none" />
  <path
     inkscape:connector-curvature="0"
     id="path3032"
     d="m 155.918,252.90996 16.33,20.739 -10.138,7.922 -14.375,-18.195 8.183,-10.466 z m -37.283,-47.988 26.162,33.742 -8.183,10.484 -28.184,-36.265 10.205,-7.961 z"
     style="fill:#ffffff;stroke:none" />
  <path
     inkscape:connector-curvature="0"
     id="path3034"
     d="m 174.603,274.76596 -12.048,9.413 c -2.804,2.148 1.436,7.802 4.351,5.569 l 12.069,-9.387 c 2.785,-2.176 -1.613,-7.75 -4.372,-5.595 z"
     style="fill:#ffffff;stroke:none" />
  <path
     inkscape:connector-curvature="0"
     id="path3036"
     d="m 113.747,196.82796 -12.048,9.413 c -2.804,2.148 1.436,7.802 4.351,5.569 l 12.069,-9.386 c 2.785,-2.177 -1.613,-7.752 -4.372,-5.596 z"
     style="fill:#ffffff;stroke:none" />
  <path
     inkscape:connector-curvature="0"
     id="path3038"
     d="m 75.133,192.77096 -15.602,-12.075 c -0.24,-0.189 -0.174,-1.121 0.702,-0.946 0.145,0.017 9.758,0.908 9.758,0.908 l -0.067,-6.947 c -0.03,-0.446 0.636,-1.044 1.099,-0.897 0.066,0.013 6.697,1.848 6.697,1.848 l -3.251,-14.797 c -0.151,-0.575 0.627,-1.196 1.181,-0.937 0.008,10e-4 13.51,6.796 13.51,6.796 l -0.102,-6.909 c -0.046,-0.469 0.584,-1.105 1.192,-0.931 0.083,0.015 6.618,1.818 6.618,1.818 l 1.499,-9.747 c 0.041,-0.804 0.763,-0.748 0.896,-0.606 0.025,0.05 8.127,18.091 8.127,18.091 l -32.257,25.331 z"
     style="fill:#ffffff;stroke:none" />
  <path
     inkscape:connector-curvature="0"
     id="path3040"
     d="m 113.055,283.33496 -14.305,18.247 c 0,0 10.15,7.954 10.16,7.941 l 14.377,-18.22 -10.232,-7.968 z"
     style="fill:#ffffff;stroke:none" />
  <path
     inkscape:connector-curvature="0"
     id="path3042"
     d="m 198.559,198.23096 c 2.864,-0.966 6.7,-0.607 9.504,1.383 0.365,0.271 1.062,0.215 1.312,0 0.11,-0.089 5.846,-4.703 5.846,-4.703 l -31.284,-24.477 -3.149,6.809 c -0.157,0.334 -0.054,0.981 0.29,1.295 2.079,1.882 3.546,4.491 3.601,8.776 0.017,4.506 -2.722,7.324 -3.768,8.73 1.879,1.469 8.298,6.511 10.186,7.992 2.469,-3.575 4.273,-5.013 7.462,-5.805 z"
     style="fill:#ffffff;stroke:none" />
  <path
     inkscape:connector-curvature="0"
     id="path3044"
     d="m 107.043,319.68596 c -1.745,2.086 -4.868,2.373 -6.699,0.968 l -10.199,-7.969 c -1.821,-1.422 -2.472,-4.401 -0.738,-6.623 l 1.475,-1.887 c 1.774,-2.271 4.781,-2.305 6.608,-0.829 l 10.19,7.941 c 1.849,1.465 2.295,4.584 0.88,6.458 l -1.517,1.941 z"
     style="fill:#ffffff;stroke:none" />
  <path
     inkscape:connector-curvature="0"
     id="path3046"
     d="m 117.811,275.17696 12.048,9.413 c 2.804,2.149 -1.436,7.802 -4.351,5.569 l -12.069,-9.386 c -2.785,-2.176 1.613,-7.751 4.372,-5.596 z"
     style="fill:#ffffff;stroke:none" />
  <path
     inkscape:connector-curvature="0"
     id="path3048"
     d="m 178.666,197.23996 12.049,9.412 c 2.804,2.148 -1.436,7.802 -4.351,5.569 l -12.069,-9.386 c -2.786,-2.176 1.613,-7.751 4.371,-5.595 z"
     style="fill:#ffffff;stroke:none" />
  <path
     inkscape:connector-curvature="0"
     id="path3050"
     d="m 217.281,193.18196 15.602,-12.074 c 0.24,-0.19 0.174,-1.122 -0.702,-0.947 -0.145,0.018 -9.758,0.909 -9.758,0.909 l 0.067,-6.947 c 0.03,-0.447 -0.636,-1.044 -1.099,-0.898 -0.066,0.014 -6.697,1.848 -6.697,1.848 l 3.251,-14.797 c 0.15,-0.575 -0.627,-1.196 -1.181,-0.937 -0.008,0.001 -13.51,6.796 -13.51,6.796 l 0.102,-6.909 c 0.046,-0.469 -0.584,-1.104 -1.192,-0.931 -0.083,0.015 -6.618,1.819 -6.618,1.819 l -1.499,-9.748 c -0.041,-0.804 -0.763,-0.748 -0.896,-0.606 -0.026,0.05 -8.127,18.091 -8.127,18.091 l 32.257,25.331 z"
     style="fill:#ffffff;stroke:none" />
  <path
     inkscape:connector-curvature="0"
     id="path3052"
     d="m 173.779,205.33296 10.205,7.961 -53.68,68.688 -10.138,-7.921 53.613,-68.728 z"
     style="fill:#ffffff;stroke:none" />
  <g
     id="g3090"
     transform="translate(-155.839,-167.61304)" />
</svg>
